<svg width="24" height="32" viewBox="0 0 24 32" fill="none" xmlns="http://www.w3.org/2000/svg">
<path d="M17.6562 4H20C22.2062 4 24 5.79063 24 8V28C24 30.2062 22.2062 32 20 32H4C1.79063 32 0 30.2062 0 28V8C0 5.79063 1.79063 4 4 4H6.34375C7.1625 1.66937 9.3875 0 12 0C14.6125 0 16.8375 1.66937 17.6562 4ZM12 8C13.1062 8 14 7.10625 14 6C14 4.89563 13.1062 4 12 4C10.8938 4 10 4.89563 10 6C10 7.10625 10.8938 8 12 8ZM6.5875 14.4062C6.30625 15.1875 6.71875 16.0438 7.44375 16.325C8.28125 16.6 9.1375 16.1938 9.4125 15.4125L9.44375 15.3313C9.5125 15.1313 9.7 15 9.9125 15H13.5562C14.075 15 14.5 15.425 14.5 15.9438C14.5 16.2875 14.3187 16.6 14.025 16.7687L11.2563 18.3563C10.7875 18.625 10.5 19.1187 10.5 19.6562V20.5C10.5 21.3312 11.1687 22 12 22C12.8188 22 13.4875 21.3438 13.4438 20.525L15.5188 19.3687C16.7437 18.6687 17.5 17.3625 17.5 15.9438C17.5 13.7688 15.7312 12 13.5562 12H9.9125C8.43125 12 7.1125 12.9313 6.6125 14.3313L6.5875 14.4062ZM12 24C10.8938 24 10 24.8937 10 26C10 27.1063 10.8938 28 12 28C13.1062 28 14 27.1063 14 26C14 24.8937 13.1062 24 12 24Z" fill="#B92728"/>
</svg>
