<svg width="46" height="35" viewBox="0 0 46 35" fill="none" xmlns="http://www.w3.org/2000/svg">
<g clip-path="url(#clip0_198_11422)">
<path d="M42.5585 6.61133H34.635C32.5991 6.61133 32.5241 4.71284 32.522 4.49838V3.4419C32.522 2.11285 31.0535 0.272461 28.2961 0.272461H17.764C14.6633 0.272461 13.5381 2.16778 13.5381 3.4419V4.49204C13.5371 4.57867 13.4874 6.61133 11.3924 6.61133H3.46883C2.7686 6.61217 2.09729 6.89071 1.60215 7.38585C1.10701 7.88099 0.828475 8.5523 0.827637 9.25253L0.827637 28.2691C0.827637 29.725 2.01195 30.9103 3.46883 30.9103H9.80771C9.9478 30.9103 10.0822 30.8547 10.1812 30.7556C10.2803 30.6566 10.3359 30.5222 10.3359 30.3821C10.3359 30.242 10.2803 30.1076 10.1812 30.0086C10.0822 29.9095 9.9478 29.8539 9.80771 29.8539H3.46883C2.59513 29.8539 1.88412 29.1429 1.88412 28.2691V15.0632H10.3359C9.63664 16.7364 9.2775 18.5321 9.27947 20.3456C9.27947 27.9184 15.4409 34.0798 23.0137 34.0798C30.5865 34.0798 36.7479 27.9184 36.7479 20.3456C36.7479 18.4745 36.3686 16.6901 35.6883 15.0632H44.1433V28.2691C44.1433 29.1429 43.4323 29.8539 42.5585 29.8539H35.1632C35.0231 29.8539 34.8887 29.9095 34.7897 30.0086C34.6906 30.1076 34.635 30.242 34.635 30.3821C34.635 30.5222 34.6906 30.6566 34.7897 30.7556C34.8887 30.8547 35.0231 30.9103 35.1632 30.9103H42.5585C44.0154 30.9103 45.1997 29.725 45.1997 28.2691V9.25253C45.1997 7.7967 44.0154 6.61133 42.5585 6.61133ZM23.0137 33.0233C16.023 33.0233 10.3359 27.3363 10.3359 20.3456C10.3359 13.3548 16.023 7.66781 23.0137 7.66781C30.0044 7.66781 35.6914 13.3548 35.6914 20.3456C35.6914 27.3363 30.0044 33.0233 23.0137 33.0233ZM35.4273 14.0067C35.352 14.0072 35.2777 14.0242 35.2097 14.0563C32.9235 9.64131 28.3193 6.61133 23.0137 6.61133C17.7081 6.61133 13.1039 9.64131 10.8177 14.0563C10.7496 14.0242 10.6754 14.0072 10.6001 14.0067H1.88412V9.25253C1.88412 8.37882 2.59513 7.66781 3.46883 7.66781H11.3924C13.8942 7.66781 14.5819 5.59923 14.5946 4.49838V3.4419C14.5946 2.59249 15.4387 1.32894 17.764 1.32894H28.2961C30.5084 1.32894 31.4655 2.72772 31.4655 3.4419V4.49838C31.4655 5.595 32.1279 7.66781 34.635 7.66781H42.5585C43.4323 7.66781 44.1433 8.37882 44.1433 9.25253V14.0067H35.4273Z" fill="#B92728"/>
<path d="M10.8642 5.55518C11.0043 5.55518 11.1386 5.49952 11.2377 5.40046C11.3368 5.3014 11.3924 5.16704 11.3924 5.02694V3.97046C11.3924 3.09675 10.6814 2.38574 9.8077 2.38574H5.58179C4.70808 2.38574 3.99707 3.09675 3.99707 3.97046V5.02694C3.99707 5.16704 4.05272 5.3014 4.15179 5.40046C4.25085 5.49952 4.38521 5.55518 4.52531 5.55518C4.66541 5.55518 4.79977 5.49952 4.89883 5.40046C4.9979 5.3014 5.05355 5.16704 5.05355 5.02694V3.97046C5.05355 3.83036 5.1092 3.696 5.20827 3.59694C5.30733 3.49787 5.44169 3.44222 5.58179 3.44222H9.8077C9.9478 3.44222 10.0822 3.49787 10.1812 3.59694C10.2803 3.696 10.3359 3.83036 10.3359 3.97046V5.02694C10.3359 5.16704 10.3916 5.3014 10.4907 5.40046C10.5897 5.49952 10.7241 5.55518 10.8642 5.55518ZM23.0137 10.8376C17.7704 10.8376 13.5054 15.1036 13.5054 20.3459C13.5054 25.5881 17.7704 29.8542 23.0137 29.8542C28.257 29.8542 32.522 25.5881 32.522 20.3459C32.522 15.1036 28.257 10.8376 23.0137 10.8376ZM23.0137 28.7977C18.3536 28.7977 14.5619 25.006 14.5619 20.3459C14.5619 15.6858 18.3536 11.8941 23.0137 11.8941C27.6738 11.8941 31.4655 15.6858 31.4655 20.3459C31.4655 25.006 27.6738 28.7977 23.0137 28.7977Z" fill="#B92728"/>
</g>
<defs>
<clipPath id="clip0_198_11422">
<rect width="44.3721" height="33.8073" fill="white" transform="translate(0.827637 0.272461)"/>
</clipPath>
</defs>
</svg>
