<svg width="45" height="44" viewBox="0 0 45 44" fill="none" xmlns="http://www.w3.org/2000/svg">
<path d="M2.52766 38.3746H37.4875C38.5995 38.3746 39.5044 37.4697 39.5044 36.3577V2.7425C39.5044 1.63051 38.5995 0.725586 37.4875 0.725586H2.52766C1.41566 0.725586 0.510742 1.63051 0.510742 2.7425V36.3577C0.510742 37.4697 1.41566 38.3746 2.52766 38.3746ZM1.85535 2.7425C1.85535 2.56419 1.92618 2.39319 2.05226 2.26711C2.17835 2.14103 2.34935 2.0702 2.52766 2.0702H37.4875C37.6658 2.0702 37.8368 2.14103 37.9629 2.26711C38.089 2.39319 38.1598 2.56419 38.1598 2.7425V36.3577C38.1598 36.536 38.089 36.707 37.9629 36.8331C37.8368 36.9592 37.6658 37.03 37.4875 37.03H2.52766C2.34935 37.03 2.17835 36.9592 2.05226 36.8331C1.92618 36.707 1.85535 36.536 1.85535 36.3577V2.7425Z" fill="#B92728"/>
<path d="M24.714 15.5161C26.1971 15.5161 27.4032 14.31 27.4032 12.8269C27.4032 11.3438 26.1971 10.1377 24.714 10.1377C23.2309 10.1377 22.0248 11.3438 22.0248 12.8269C22.0248 14.31 23.2309 15.5161 24.714 15.5161ZM24.714 11.4823C24.9803 11.482 25.2407 11.5608 25.4623 11.7086C25.6838 11.8564 25.8565 12.0666 25.9586 12.3126C26.0606 12.5586 26.0874 12.8293 26.0355 13.0905C25.9836 13.3517 25.8554 13.5917 25.6671 13.78C25.4788 13.9683 25.2388 14.0965 24.9776 14.1484C24.7164 14.2003 24.4456 14.1735 24.1996 14.0715C23.9537 13.9695 23.7435 13.7967 23.5957 13.5752C23.4479 13.3536 23.3691 13.0932 23.3694 12.8269C23.3694 12.086 23.9718 11.4823 24.714 11.4823Z" fill="#B92728"/>
<path d="M5.21649 31.652H34.7979C34.9762 31.652 35.1472 31.5811 35.2733 31.455C35.3994 31.329 35.4702 31.158 35.4702 30.9796V5.43207C35.4702 5.25376 35.3994 5.08276 35.2733 4.95668C35.1472 4.8306 34.9762 4.75977 34.7979 4.75977H5.21649C5.03819 4.75977 4.86718 4.8306 4.7411 4.95668C4.61502 5.08276 4.54419 5.25376 4.54419 5.43207V30.9796C4.54419 31.158 4.61502 31.329 4.7411 31.455C4.86718 31.5811 5.03819 31.652 5.21649 31.652ZM5.8888 30.3073V24.071C5.91838 24.0495 5.952 24.0374 5.97889 24.0105L12.8579 17.1315C13.034 16.9635 13.268 16.8698 13.5114 16.8698C13.7548 16.8698 13.9888 16.9635 14.1649 17.1315L24.2777 27.2443C24.4015 27.3692 24.5695 27.4403 24.7454 27.4423C24.9213 27.4443 25.0909 27.3771 25.2176 27.2551L30.4158 22.3177C30.5014 22.2315 30.6032 22.1631 30.7154 22.1165C30.8275 22.0699 30.9478 22.0459 31.0693 22.0461C31.3167 22.0461 31.5466 22.1429 31.6932 22.2854L34.1256 25.054V30.3073H5.8888ZM34.1256 6.10437V23.0209L32.6721 21.3697C32.4626 21.1582 32.2131 20.9904 31.9382 20.8761C31.6633 20.7618 31.3684 20.7034 31.0706 20.7041H31.0693C30.7738 20.7029 30.4809 20.7599 30.2075 20.8721C29.9341 20.9842 29.6855 21.1492 29.4759 21.3576L24.7644 25.8325L15.1155 16.1822C14.2563 15.3244 12.7638 15.3257 11.9073 16.1822L5.8888 22.2007V6.10437H34.1256Z" fill="#B92728"/>
<path d="M6.56183 39.8312C6.38352 39.8312 6.21252 39.902 6.08644 40.0281C5.96036 40.1542 5.88953 40.3252 5.88953 40.5035V41.7365C5.88953 42.8485 6.79445 43.7534 7.90644 43.7534H42.8663C43.9783 43.7534 44.8832 42.8485 44.8832 41.7365V6.77668C44.8832 5.66469 43.9783 4.75977 42.8663 4.75977H41.6333C41.455 4.75977 41.284 4.8306 41.1579 4.95668C41.0318 5.08276 40.961 5.25376 40.961 5.43207C40.961 5.61038 41.0318 5.78138 41.1579 5.90746C41.284 6.03354 41.455 6.10437 41.6333 6.10437H42.8663C43.0446 6.10437 43.2156 6.17521 43.3417 6.30129C43.4678 6.42737 43.5386 6.59837 43.5386 6.77668V41.7365C43.5386 41.9148 43.4678 42.0858 43.3417 42.2119C43.2156 42.338 43.0446 42.4088 42.8663 42.4088H7.90644C7.72813 42.4088 7.55713 42.338 7.43105 42.2119C7.30497 42.0858 7.23414 41.9148 7.23414 41.7365V40.5035C7.23414 40.3252 7.1633 40.1542 7.03722 40.0281C6.91114 39.902 6.74014 39.8312 6.56183 39.8312Z" fill="#B92728"/>
</svg>
