<svg width="46" height="35" viewBox="0 0 46 35" fill="none" xmlns="http://www.w3.org/2000/svg">
<path d="M43.6407 0.272461H33.0757C32.3456 0.272461 31.4127 0.669706 30.913 1.19162L29.5079 2.60733C29.4092 2.70695 29.3542 2.84166 29.3549 2.98184C29.3553 3.05125 29.3693 3.11991 29.3961 3.1839C29.423 3.2479 29.4622 3.30597 29.5116 3.35481C29.5609 3.40365 29.6193 3.44229 29.6836 3.46854C29.7479 3.49478 29.8167 3.50811 29.8861 3.50777C30.0262 3.50708 30.1604 3.45072 30.259 3.35111L31.6684 1.92906C31.9695 1.61528 32.6404 1.32896 33.0757 1.32896H43.6407C43.7808 1.32896 43.9152 1.38462 44.0142 1.48369C44.1133 1.58275 44.169 1.71712 44.169 1.85722V12.474C44.169 12.9082 43.8827 13.5791 43.5625 13.8866L28.6859 28.648C28.5803 28.7448 28.4418 28.7978 28.2986 28.7962C28.1554 28.7946 28.0181 28.7386 27.9147 28.6396L25.117 25.8409C25.0174 25.7447 24.884 25.6914 24.7455 25.6926C24.607 25.6938 24.4745 25.7494 24.3765 25.8473C24.2786 25.9453 24.223 26.0778 24.2218 26.2163C24.2206 26.3548 24.2739 26.4882 24.3701 26.5879L27.1677 29.3865C27.468 29.6817 27.8713 29.8487 28.2924 29.852C28.7135 29.8554 29.1194 29.6949 29.4244 29.4045L44.3021 14.642C44.8282 14.137 45.2255 13.2041 45.2255 12.474V1.85722C45.2255 0.983488 44.5144 0.272461 43.6407 0.272461Z" fill="#B92728"/>
<path d="M42.0964 5.55539C42.0964 4.39007 41.1487 3.44238 39.9834 3.44238C38.8181 3.44238 37.8704 4.39007 37.8704 5.55539C37.8704 6.72071 38.8181 7.6684 39.9834 7.6684C41.1487 7.6684 42.0964 6.72071 42.0964 5.55539ZM38.9269 5.55539C38.9267 5.34613 38.9886 5.14152 39.1047 4.96744C39.2208 4.79337 39.386 4.65765 39.5793 4.57748C39.7725 4.4973 39.9853 4.47627 40.1905 4.51704C40.3958 4.55782 40.5843 4.65856 40.7323 4.80653C40.8802 4.95449 40.981 5.14303 41.0217 5.34827C41.0625 5.55352 41.0415 5.76625 40.9613 5.95953C40.8811 6.15282 40.7454 6.31798 40.5713 6.4341C40.3973 6.55023 40.1926 6.6121 39.9834 6.61189C39.4002 6.61189 38.9269 6.13752 38.9269 5.55539ZM18.2448 4.49889C17.5147 4.49889 16.5818 4.89613 16.0811 5.41804L1.2974 20.3475C1.0086 20.6518 0.849454 21.0566 0.853594 21.4761C0.857735 21.8956 1.02484 22.2971 1.31959 22.5957L12.3368 33.613C12.6379 33.9151 13.0415 34.081 13.4736 34.081C13.892 34.081 14.2871 33.9236 14.5924 33.6309L29.4691 18.8694C29.9963 18.3644 30.3946 17.4315 30.3946 16.7004V6.08364C30.3946 5.20991 29.6835 4.49889 28.8098 4.49889H18.2448ZM29.3782 6.08364V16.7004C29.3782 17.1357 29.0518 17.8055 28.7316 18.113L13.855 32.8745C13.7484 32.9686 13.6106 33.0199 13.4683 33.0183C13.326 33.0168 13.1894 32.9625 13.0848 32.866L2.06654 21.8498C1.96773 21.748 1.91133 21.6125 1.90878 21.4706C1.90623 21.3288 1.95772 21.1913 2.0528 21.086L16.8375 6.15548C17.1386 5.8417 17.8095 5.55539 18.2448 5.55539H28.8098C29.1003 5.55539 29.3782 5.79205 29.3782 6.08364Z" fill="#B92728"/>
<path d="M25.1518 7.66797C23.9865 7.66797 23.0388 8.61565 23.0388 9.78098C23.0388 10.9463 23.9865 11.894 25.1518 11.894C26.3171 11.894 27.2648 10.9463 27.2648 9.78098C27.2648 8.61565 26.3171 7.66797 25.1518 7.66797ZM25.1518 10.8375C24.8798 10.8253 24.6229 10.7087 24.4348 10.5119C24.2466 10.3151 24.1415 10.0533 24.1415 9.78098C24.1415 9.50868 24.2466 9.24687 24.4348 9.05007C24.6229 8.85327 24.8798 8.73664 25.1518 8.72447C25.4239 8.73664 25.6807 8.85327 25.8689 9.05007C26.0571 9.24687 26.1621 9.50868 26.1621 9.78098C26.1621 10.0533 26.0571 10.3151 25.8689 10.5119C25.6807 10.7087 25.4239 10.8253 25.1518 10.8375V10.8375Z" fill="#B92728"/>
</svg>
