<svg width="45" height="32" viewBox="0 0 45 32" fill="none" xmlns="http://www.w3.org/2000/svg">
<path d="M5.20498 25.146V24.7687L4.86422 24.6066C2.44053 23.4537 0.76777 20.9892 0.76777 18.1297C0.76777 14.1681 3.97646 10.9619 7.93553 10.9619H10.1541C11.3788 10.9619 12.6063 11.2927 13.6523 11.8713C11.8042 13.7772 10.6661 16.3774 10.6661 19.239C10.6661 21.6708 11.43 23.9278 12.8847 25.7284V27.0041C12.8847 27.9014 12.1607 28.6254 11.2634 28.6254H6.82623C5.93069 28.6254 5.20498 27.901 5.20498 27.0041V25.146ZM5.20498 15.197V13.6263L4.16124 14.8C3.37592 15.6831 2.90096 16.8565 2.90096 18.1297C2.90096 19.4029 3.37592 20.5763 4.16124 21.4594L5.20498 22.6331V21.0624V15.197ZM34.0468 19.239C34.0468 16.3766 32.9081 13.7757 31.059 11.8696C32.0926 11.2913 33.2853 10.9619 34.5588 10.9619H36.7774C40.7391 10.9619 43.9452 14.168 43.9452 18.1297C43.9452 20.9889 42.2699 23.4537 39.8485 24.6067L39.5079 24.7689V25.146V27.0041C39.5079 27.9014 38.784 28.6254 37.8867 28.6254H33.4495C32.5522 28.6254 31.8282 27.9014 31.8282 27.0041V25.7216C33.2179 23.9327 34.0468 21.6818 34.0468 19.239ZM39.5079 21.0624V22.7449L40.5689 21.4391C41.264 20.5836 41.812 19.4217 41.812 18.1297C41.812 16.8377 41.264 15.6758 40.5689 14.8203L39.5079 13.5145V15.197V21.0624ZM26.5368 25.716L26.1963 25.8782V26.2553V29.2227C26.1963 30.12 25.4723 30.844 24.5751 30.844H20.1379C19.2406 30.844 18.5166 30.12 18.5166 29.2227V26.2553V25.8782L18.1761 25.716C15.7547 24.563 14.0794 22.0982 14.0794 19.239C14.0794 15.2773 17.2855 12.0712 21.2472 12.0712H23.4658C27.4275 12.0712 30.6335 15.2773 30.6335 19.239C30.6335 22.0982 28.9582 24.563 26.5368 25.716ZM17.4737 22.5696L18.5166 23.7377V22.1717V16.3063V14.7403L17.4737 15.9084C16.6842 16.7927 16.2126 17.9667 16.2126 19.239C16.2126 20.5113 16.6842 21.6853 17.4737 22.5696ZM27.2573 15.9296L26.1963 14.6238V16.3063V22.1717V23.8659L27.2589 22.5464C27.9515 21.6864 28.5003 20.5321 28.5003 19.239C28.5003 17.947 27.9524 16.7851 27.2573 15.9296ZM12.33 4.26342C12.33 6.07585 10.8573 7.54862 9.04483 7.54862C7.23053 7.54862 5.75963 6.07606 5.75963 4.26342C5.75963 2.44891 7.23032 0.978219 9.04483 0.978219C10.8575 0.978219 12.33 2.44912 12.33 4.26342ZM38.9533 4.26342C38.9533 6.07585 37.4805 7.54862 35.6681 7.54862C33.8557 7.54862 32.3829 6.07585 32.3829 4.26342C32.3829 2.44912 33.8555 0.978219 35.6681 0.978219C37.4807 0.978219 38.9533 2.44912 38.9533 4.26342ZM18.5166 4.81807C18.5166 2.69742 20.2387 0.978219 22.3565 0.978219C24.4743 0.978219 26.1963 2.69742 26.1963 4.81807C26.1963 6.93556 24.4739 8.65792 22.3565 8.65792C20.239 8.65792 18.5166 6.93556 18.5166 4.81807Z" stroke="#B92728" stroke-width="1.19472"/>
</svg>
