<svg width="40" height="41" viewBox="0 0 40 41" fill="none" xmlns="http://www.w3.org/2000/svg">
<path d="M23.8371 10.6392C16.5476 10.6392 10.6394 16.5474 10.6394 23.8369C10.6394 31.1264 16.5476 37.0346 23.8371 37.0346C31.1266 37.0346 37.0348 31.1264 37.0348 23.8369C37.0348 16.5474 31.1266 10.6392 23.8371 10.6392ZM23.8371 33.4285C18.5401 33.4285 14.2495 29.1339 14.2495 23.8409C14.2495 18.548 18.5442 14.2534 23.8371 14.2534C29.1301 14.2534 33.4247 18.548 33.4247 23.8409C33.4247 29.1339 29.1301 33.4285 23.8371 33.4285Z" fill="#EF8975"/>
<path d="M23.6537 27.7569C22.635 27.7569 21.6531 27.3616 20.9604 26.669C20.2392 25.9477 19.8398 24.9902 19.8398 23.9797C19.8398 22.9692 20.2392 22.0117 20.9604 21.2904C21.6694 20.5774 22.6513 20.1699 23.6496 20.1699C24.6479 20.1699 25.6177 20.5692 26.3389 21.2904C27.0601 21.9954 27.4594 22.9529 27.4594 23.9797C27.4594 25.0065 27.0601 25.964 26.3348 26.6771C25.6584 27.3616 24.6805 27.7569 23.6659 27.761H23.6578L23.6537 27.7569ZM23.6537 21.755C23.071 21.755 22.5006 21.9954 22.085 22.411C21.6612 22.8347 21.429 23.3889 21.429 23.9797C21.429 24.5705 21.6612 25.1247 22.085 25.5484C22.4843 25.9437 23.0547 26.1718 23.6578 26.1718H23.6659C24.2649 26.1718 24.8313 25.9437 25.2224 25.5484C25.6503 25.1287 25.8825 24.5746 25.8825 23.9756C25.8825 23.3767 25.6503 22.8225 25.2346 22.411C24.8068 21.9831 24.2486 21.7509 23.6618 21.7509L23.6537 21.755Z" fill="#256782"/>
<path d="M10.8389 11.6335C10.6311 11.6335 10.4314 11.552 10.2766 11.4012L4.53541 5.66009C4.36428 5.48895 4.28279 5.25263 4.30724 5.01222L4.78397 0.705341C4.81656 0.403819 5.02029 0.14712 5.30959 0.045254C5.59889 -0.0566116 5.91671 0.0167282 6.13267 0.232683L11.8738 5.97383C12.0449 6.14497 12.1264 6.3813 12.102 6.6217L11.6253 10.9286C11.5927 11.2301 11.3889 11.4868 11.0996 11.5887C11.0141 11.6172 10.9244 11.6335 10.8389 11.6335ZM5.92893 4.80849L10.2317 9.11537L10.4844 6.82543L6.17749 2.52263L5.92486 4.80849H5.92893Z" fill="#256782"/>
<path d="M6.53613 12.1141C6.32833 12.1141 6.12459 12.0326 5.97383 11.8819L0.232688 6.14072C0.016733 5.92477 -0.0566129 5.60695 0.0452527 5.31765C0.147118 5.02835 0.403824 4.82462 0.705346 4.79202L5.01222 4.31529C5.25262 4.29084 5.48895 4.37234 5.66009 4.54347L11.4012 10.2846C11.6172 10.5006 11.6905 10.8184 11.5887 11.1077C11.4868 11.397 11.2301 11.6007 10.9286 11.6333L6.6217 12.1101C6.59317 12.1101 6.56466 12.1141 6.53613 12.1141ZM2.52263 6.18554L6.82543 10.4924L9.11537 10.2398L4.81256 5.93292L2.52263 6.18554Z" fill="#256782"/>
<path d="M23.3965 24.1913C23.1928 24.1913 22.989 24.1139 22.8342 23.959L4.53914 5.6599C4.22947 5.35023 4.22947 4.84905 4.53914 4.53938C4.84881 4.22971 5.34999 4.22971 5.65966 4.53938L23.9547 22.8344C24.2644 23.1441 24.2644 23.6453 23.9547 23.955C23.7999 24.1098 23.5962 24.1872 23.3924 24.1872L23.3965 24.1913Z" fill="#256782"/>
<path d="M23.6538 40.3351C19.2858 40.3351 15.1785 38.6319 12.09 35.5434C5.71318 29.1666 5.71318 18.7926 12.09 12.4158C15.1785 9.32722 19.2858 7.62402 23.6538 7.62402C28.0218 7.62402 32.129 9.32722 35.2175 12.4158C41.5943 18.7926 41.5943 29.1666 35.2175 35.5434C32.129 38.6319 28.0218 40.3351 23.6538 40.3351ZM23.6538 9.20905C19.7095 9.20905 16.0016 10.7452 13.2105 13.5363C7.45304 19.2938 7.45304 28.6654 13.2105 34.4228C16.0016 37.214 19.7095 38.7501 23.6538 38.7501C27.598 38.7501 31.3059 37.214 34.097 34.4228C39.8545 28.6654 39.8545 19.2938 34.097 13.5363C31.3059 10.7452 27.598 9.20905 23.6538 9.20905Z" fill="#256782"/>
<path d="M23.6535 34.382C20.8787 34.382 18.2709 33.3022 16.3069 31.3342C14.343 29.3702 13.2591 26.7543 13.2632 23.9714C13.2632 21.1925 14.347 18.5847 16.3069 16.6289C17.346 15.5898 18.5561 14.7994 19.9048 14.2778C20.3123 14.123 20.7727 14.3226 20.9316 14.7301C21.0906 15.1376 20.8868 15.598 20.4794 15.7569C19.3344 16.201 18.3117 16.8693 17.4275 17.7494C15.765 19.4078 14.8482 21.6162 14.8482 23.9714C14.8482 26.3306 15.7609 28.5471 17.4275 30.2096C19.094 31.8761 21.3024 32.7929 23.6535 32.7929C26.0045 32.7929 28.2211 31.8761 29.8877 30.2096C33.3185 26.7706 33.3185 21.1802 29.8877 17.7494C28.6897 16.5515 27.1943 15.7325 25.5604 15.3739C25.1326 15.2802 24.8637 14.8564 24.9574 14.4286C25.0511 14.0007 25.4708 13.7277 25.9027 13.8255C27.8341 14.2493 29.6024 15.2191 31.0123 16.6289C35.0624 20.675 35.0624 27.2718 31.0123 31.3301C29.0483 33.2941 26.4365 34.3779 23.6576 34.3779L23.6535 34.382Z" fill="#256782"/>
</svg>
