<svg width="40" height="40" viewBox="0 0 40 40" fill="none" xmlns="http://www.w3.org/2000/svg">
<path d="M11.6666 10V10.75C11.9174 10.75 12.1515 10.6247 12.2906 10.416L11.6666 10ZM14.0104 6.48433L13.3863 6.06831V6.06831L14.0104 6.48433ZM25.9895 6.48433L26.6135 6.06831L25.9895 6.48433ZM28.3333 10L27.7092 10.416C27.8483 10.6247 28.0825 10.75 28.3333 10.75V10ZM24.2499 22.5C24.2499 24.8472 22.3471 26.75 19.9999 26.75V28.25C23.1756 28.25 25.7499 25.6756 25.7499 22.5H24.2499ZM19.9999 26.75C17.6527 26.75 15.7499 24.8472 15.7499 22.5H14.2499C14.2499 25.6756 16.8243 28.25 19.9999 28.25V26.75ZM15.7499 22.5C15.7499 20.1528 17.6527 18.25 19.9999 18.25V16.75C16.8243 16.75 14.2499 19.3244 14.2499 22.5H15.7499ZM19.9999 18.25C22.3471 18.25 24.2499 20.1528 24.2499 22.5H25.7499C25.7499 19.3244 23.1756 16.75 19.9999 16.75V18.25ZM12.2906 10.416L14.6344 6.90036L13.3863 6.06831L11.0425 9.58397L12.2906 10.416ZM16.7839 5.75H23.216V4.25H16.7839V5.75ZM25.3654 6.90036L27.7092 10.416L28.9573 9.58397L26.6135 6.06831L25.3654 6.90036ZM23.216 5.75C24.0797 5.75 24.8863 6.18168 25.3654 6.90036L26.6135 6.06831C25.8562 4.93233 24.5812 4.25 23.216 4.25V5.75ZM14.6344 6.90036C15.1135 6.18168 15.9201 5.75 16.7839 5.75V4.25C15.4186 4.25 14.1436 4.93233 13.3863 6.06831L14.6344 6.90036ZM35.9166 16.6667V28.3333H37.4166V16.6667H35.9166ZM29.9999 34.25H9.99992V35.75H29.9999V34.25ZM4.08325 28.3333V16.6667H2.58325V28.3333H4.08325ZM9.99992 34.25C6.73223 34.25 4.08325 31.601 4.08325 28.3333H2.58325C2.58325 32.4294 5.90381 35.75 9.99992 35.75V34.25ZM35.9166 28.3333C35.9166 31.601 33.2676 34.25 29.9999 34.25V35.75C34.096 35.75 37.4166 32.4294 37.4166 28.3333H35.9166ZM29.9999 10.75C33.2676 10.75 35.9166 13.399 35.9166 16.6667H37.4166C37.4166 12.5706 34.096 9.25 29.9999 9.25V10.75ZM9.99992 9.25C5.90381 9.25 2.58325 12.5706 2.58325 16.6667H4.08325C4.08325 13.399 6.73223 10.75 9.99992 10.75V9.25ZM9.99992 10.75H11.6666V9.25H9.99992V10.75ZM29.9999 9.25H28.3333V10.75H29.9999V9.25Z" fill="#256782"/>
<ellipse cx="19.9999" cy="10.0002" rx="1.66667" ry="1.66667" fill="#256782"/>
<circle cx="19.5" cy="21.5" r="3.5" fill="#7DD6EA"/>
<path d="M31.8875 12.1963C32.5892 13.8921 33.4955 15.5459 33.8243 17.3541C33.9342 17.9587 34.0091 18.56 34.119 19.1646C34.2754 20.0247 34.1804 21.0317 34.1611 21.9014C34.1427 22.7296 33.7886 23.4771 33.6348 24.2803C33.5348 24.8026 33.622 25.2856 33.4453 25.7961C33.2275 26.4253 32.8916 27.0582 32.5401 27.5855C30.9691 29.942 29.226 30.8211 26.6454 31.7959C25.2816 32.3112 23.7098 32.0907 22.2666 32.0907C21.288 32.0907 21.7174 32.2355 22.3403 31.9959C24.335 31.2287 26.8544 32.3518 28.9296 31.8907C29.578 31.7466 30.1716 31.9412 29.1296 32.0802C28.0657 32.222 26.9855 32.2801 25.9086 32.2801C24.3939 32.2801 23.093 32.8486 21.5824 32.8486C20.028 32.8486 24.6911 32.8486 26.2454 32.8486C26.8449 32.8486 27.5557 32.9723 28.098 32.7012C28.6609 32.4198 29.2924 32.304 29.8033 32.0486C30.043 31.9287 30.3545 31.6963 30.5612 31.5223C30.8279 31.2976 31.2574 31.4788 31.4664 31.2907C31.5838 31.185 32.4234 30.3725 32.0348 30.7223C31.7048 31.0193 30.771 31.8592 30.3717 31.9012C30.0815 31.9318 29.9721 31.9287 29.7191 32.0486C29.4058 32.197 28.7507 32.7741 28.7507 32.4275C28.7507 31.9148 30.2645 32.0907 30.5612 32.0907C31.0114 32.0907 31.1382 31.939 31.5085 31.7538C31.5315 31.7424 32.335 31.6065 32.1506 31.5328C31.9431 31.4498 30.7401 32.1889 30.5717 32.3854C30.127 32.9042 29.8195 32.8486 29.1612 32.8486C28.9541 32.8486 29.5726 32.7213 29.7191 32.5749C29.8991 32.3948 30.2058 32.1467 30.4559 32.1012C31.4251 31.925 31.2767 31.9398 31.8769 30.9644C32.3317 30.2254 32.4559 29.8236 32.4559 28.9855C32.4559 28.4472 32.3198 30.2387 32.7401 30.5749C32.8764 30.684 32.8348 31.0488 32.8348 30.6696C32.8348 30.3539 32.8348 30.0381 32.8348 29.7223C32.8348 29.3312 32.9949 28.476 32.6453 28.3013" stroke="#7DD6EA" stroke-width="2" stroke-linecap="round"/>
<path d="M33.0235 16.1752C32.7329 15.8032 32.5276 15.3058 32.0762 15.6067" stroke="#7DD6EA" stroke-width="2" stroke-linecap="round"/>
<path d="M31.1288 13.1436C30.3515 12.0621 31.3613 12.286 30.8552 12.5752C30.4893 12.7842 30.4638 13.4211 30.5709 13.7962C30.6957 14.2329 31.3183 14.5356 31.3183 15.133C31.3183 15.6762 31.6513 16.1144 31.792 16.6488C32.1822 18.1316 32.2657 19.7333 32.2657 21.3119C32.2657 21.626 32.4564 24.6987 32.8341 23.9434" stroke="#7DD6EA" stroke-width="2" stroke-linecap="round"/>
<path d="M32.8357 23.9434C32.4183 25.2393 31.3974 27.0951 31.3199 28.4906C31.3164 28.5533 31.3199 28.9358 31.3199 28.6801" stroke="#7DD6EA" stroke-width="2" stroke-linecap="round"/>
</svg>
