<svg width="40" height="36" viewBox="0 0 40 36" fill="none" xmlns="http://www.w3.org/2000/svg">
<path d="M36.264 7.36816H7.94531V23.0985H36.264V7.36816Z" fill="#7DD6EA"/>
<path d="M39.196 1.60807H0.804046C0.362854 1.60807 0 1.24934 0 0.804021C0 0.358706 0.358731 0 0.804046 0H39.196C39.6371 0 40 0.358706 40 0.804021C40 1.24934 39.6413 1.60807 39.196 1.60807Z" fill="#256782"/>
<path d="M27.9389 35.2048H12.056C11.6148 35.2048 11.252 34.846 11.252 34.4007C11.252 33.9554 11.6107 33.5967 12.056 33.5967H27.9389C28.3801 33.5967 28.7429 33.9554 28.7429 34.4007C28.7429 34.846 28.3842 35.2048 27.9389 35.2048Z" fill="#256782"/>
<path d="M36.2683 23.8985H3.72739C3.28619 23.8985 2.92334 23.5398 2.92334 23.0945V0.804021C2.92334 0.362829 3.28207 0 3.72739 0C4.1727 0 4.53142 0.358706 4.53142 0.804021V22.2946H35.4684V12.1472C35.4684 11.706 35.8272 11.3431 36.2725 11.3431C36.7178 11.3431 37.0765 11.7019 37.0765 12.1472V23.0986C37.0765 23.5398 36.7178 23.9027 36.2725 23.9027L36.2683 23.8985Z" fill="#256782"/>
<path d="M36.2684 8.55969C35.8272 8.55969 35.4644 8.20099 35.4644 7.75567V5.63217C35.4644 5.19098 35.8231 4.82812 36.2684 4.82812C36.7137 4.82812 37.0724 5.18686 37.0724 5.63217V7.75567C37.0724 8.19686 36.7137 8.55969 36.2684 8.55969Z" fill="#256782"/>
<path d="M19.9984 35.2046C19.5572 35.2046 19.1943 34.8459 19.1943 34.4006V27.2796C19.1943 26.8384 19.5531 26.4756 19.9984 26.4756C20.4437 26.4756 20.8024 26.8343 20.8024 27.2796V34.4006C20.8024 34.8417 20.4437 35.2046 19.9984 35.2046Z" fill="#256782"/>
<path d="M34.0789 4.51092H3.72739C3.28619 4.51092 2.92334 4.15219 2.92334 3.70688C2.92334 3.26156 3.28207 2.90283 3.72739 2.90283H34.0789C34.5201 2.90283 34.8829 3.26156 34.8829 3.70688C34.8829 4.15219 34.5242 4.51092 34.0789 4.51092Z" fill="#256782"/>
</svg>
